<svg xmlns="http://www.w3.org/2000/svg" xmlns:xlink="http://www.w3.org/1999/xlink" width="500" zoomAndPan="magnify" viewBox="0 0 375 374.999991" height="500" preserveAspectRatio="xMidYMid meet" version="1.0"><defs><g/><clipPath id="852118b729"><path d="M 287 164 L 324 164 L 324 202 L 287 202 Z M 287 164 " clip-rule="nonzero"/></clipPath><clipPath id="5e0f6c799d"><path d="M 280.175781 170.429688 L 305.511719 147.011719 L 340.636719 185.015625 L 315.300781 208.433594 Z M 280.175781 170.429688 " clip-rule="nonzero"/></clipPath><clipPath id="90c386367a"><path d="M 280.175781 170.429688 L 305.511719 147.011719 L 340.636719 185.015625 L 315.300781 208.433594 Z M 280.175781 170.429688 " clip-rule="nonzero"/></clipPath><clipPath id="4b6f78dcad"><path d="M 306 147 L 342 147 L 342 185 L 306 185 Z M 306 147 " clip-rule="nonzero"/></clipPath><clipPath id="4714e7e753"><path d="M 298.5625 153.4375 L 323.894531 130.019531 L 359.023438 168.023438 L 333.6875 191.441406 Z M 298.5625 153.4375 " clip-rule="nonzero"/></clipPath><clipPath id="69cce580b9"><path d="M 298.5625 153.4375 L 323.894531 130.019531 L 359.023438 168.023438 L 333.6875 191.441406 Z M 298.5625 153.4375 " clip-rule="nonzero"/></clipPath></defs><g clip-path="url(#852118b729)"><g clip-path="url(#5e0f6c799d)"><g clip-path="url(#90c386367a)"><path fill="#4dff00" d="M 323.609375 166.195312 L 292.554688 164.816406 C 286.554688 164.546875 285.542969 176.234375 292.648438 176.425781 L 311.972656 176.949219 L 310.496094 196.394531 C 310.046875 202.316406 321.59375 202.941406 321.925781 196.921875 Z M 323.609375 166.195312 " fill-opacity="1" fill-rule="nonzero"/></g></g></g><g clip-path="url(#4b6f78dcad)"><g clip-path="url(#4714e7e753)"><g clip-path="url(#69cce580b9)"><path fill="#4dff00" d="M 341.992188 149.203125 L 310.9375 147.824219 C 304.9375 147.554688 303.925781 159.242188 311.03125 159.433594 L 330.355469 159.957031 L 328.882812 179.402344 C 328.433594 185.324219 339.980469 185.949219 340.308594 179.929688 Z M 341.992188 149.203125 " fill-opacity="1" fill-rule="nonzero"/></g></g></g><g fill="#000000" fill-opacity="1"><g transform="translate(30.105159, 215.979467)"><g><path d="M 12.203125 -12.484375 L 12.203125 -3.59375 C 12.203125 -2.375 11.765625 -1.46875 10.890625 -0.875 C 10.023438 -0.289062 9.097656 0 8.109375 0 C 7.078125 0 6.148438 -0.289062 5.328125 -0.875 C 4.503906 -1.46875 4.09375 -2.351562 4.09375 -3.53125 L 4.09375 -41.25 C 4.09375 -42.320312 4.488281 -43.195312 5.28125 -43.875 C 6.082031 -44.5625 7.046875 -44.90625 8.171875 -44.90625 L 22.5625 -44.90625 C 26.457031 -44.90625 29.789062 -44.210938 32.5625 -42.828125 C 35.34375 -41.441406 37.457031 -39.515625 38.90625 -37.046875 C 40.363281 -34.578125 41.09375 -31.675781 41.09375 -28.34375 C 41.09375 -23.59375 39.445312 -19.757812 36.15625 -16.84375 C 32.875 -13.9375 28.269531 -12.484375 22.34375 -12.484375 Z M 12.203125 -37.921875 L 12.203125 -19.453125 L 22.34375 -19.453125 C 25.820312 -19.453125 28.476562 -20.265625 30.3125 -21.890625 C 32.144531 -23.515625 33.0625 -25.664062 33.0625 -28.34375 C 33.0625 -31.257812 32.15625 -33.582031 30.34375 -35.3125 C 28.539062 -37.050781 25.96875 -37.921875 22.625 -37.921875 Z M 12.203125 -37.921875 "/></g></g></g><g fill="#000000" fill-opacity="1"><g transform="translate(72.542664, 215.979467)"><g><path d="M 19.03125 -35.890625 C 20.300781 -35.890625 21.3125 -35.617188 22.0625 -35.078125 C 22.8125 -34.535156 23.1875 -33.65625 23.1875 -32.4375 C 23.1875 -31.300781 22.8125 -30.40625 22.0625 -29.75 C 21.3125 -29.09375 20.300781 -28.765625 19.03125 -28.765625 C 16.070312 -28.765625 13.992188 -27.707031 12.796875 -25.59375 C 11.597656 -23.476562 11 -20.609375 11 -16.984375 L 11 -3.59375 C 11 -2.5625 10.617188 -1.703125 9.859375 -1.015625 C 9.109375 -0.335938 8.195312 0 7.125 0 C 5.894531 0 4.90625 -0.335938 4.15625 -1.015625 C 3.40625 -1.703125 3.03125 -2.5625 3.03125 -3.59375 L 3.03125 -32.28125 C 3.03125 -33.414062 3.460938 -34.300781 4.328125 -34.9375 C 5.203125 -35.570312 6.132812 -35.890625 7.125 -35.890625 C 8.101562 -35.890625 8.992188 -35.582031 9.796875 -34.96875 C 10.597656 -34.351562 11 -33.457031 11 -32.28125 L 11 -31.859375 C 12.03125 -33.222656 13.226562 -34.234375 14.59375 -34.890625 C 15.957031 -35.554688 17.4375 -35.890625 19.03125 -35.890625 Z M 19.03125 -35.890625 "/></g></g></g><g fill="#000000" fill-opacity="1"><g transform="translate(93.62011, 215.979467)"><g><path d="M 32.78125 -35.890625 C 34 -35.890625 34.972656 -35.546875 35.703125 -34.859375 C 36.429688 -34.179688 36.796875 -33.300781 36.796875 -32.21875 L 36.796875 -3.671875 C 36.796875 -2.585938 36.429688 -1.703125 35.703125 -1.015625 C 34.972656 -0.335938 34 0 32.78125 0 C 31.601562 0 30.6875 -0.269531 30.03125 -0.8125 C 29.375 -1.351562 28.972656 -2.070312 28.828125 -2.96875 C 27.234375 -1.695312 25.445312 -0.765625 23.46875 -0.171875 C 21.5 0.410156 19.625 0.703125 17.84375 0.703125 C 14.457031 0.703125 11.53125 -0.0703125 9.0625 -1.625 C 6.59375 -3.175781 4.695312 -5.359375 3.375 -8.171875 C 2.0625 -10.992188 1.40625 -14.285156 1.40625 -18.046875 C 1.40625 -21.710938 2.132812 -24.929688 3.59375 -27.703125 C 5.050781 -30.472656 7.082031 -32.644531 9.6875 -34.21875 C 12.300781 -35.800781 15.320312 -36.59375 18.75 -36.59375 C 20.257812 -36.59375 21.929688 -36.304688 23.765625 -35.734375 C 25.597656 -35.171875 27.285156 -34.28125 28.828125 -33.0625 C 29.015625 -33.90625 29.4375 -34.585938 30.09375 -35.109375 C 30.757812 -35.628906 31.65625 -35.890625 32.78125 -35.890625 Z M 18.6875 -6.421875 C 20.75 -6.421875 22.742188 -6.878906 24.671875 -7.796875 C 26.597656 -8.710938 27.960938 -10.0625 28.765625 -11.84375 L 28.765625 -24.046875 C 27.867188 -25.785156 26.523438 -27.125 24.734375 -28.0625 C 22.953125 -29 21.144531 -29.46875 19.3125 -29.46875 C 16.351562 -29.46875 13.96875 -28.382812 12.15625 -26.21875 C 10.351562 -24.0625 9.453125 -21.316406 9.453125 -17.984375 C 9.453125 -14.503906 10.296875 -11.707031 11.984375 -9.59375 C 13.671875 -7.476562 15.90625 -6.421875 18.6875 -6.421875 Z M 18.6875 -6.421875 "/></g></g></g><g fill="#000000" fill-opacity="1"><g transform="translate(134.365734, 215.979467)"><g><path d="M 27.84375 -26.21875 C 26.757812 -27.488281 25.488281 -28.382812 24.03125 -28.90625 C 22.582031 -29.425781 21.148438 -29.6875 19.734375 -29.6875 C 16.640625 -29.6875 14.148438 -28.613281 12.265625 -26.46875 C 10.390625 -24.332031 9.453125 -21.457031 9.453125 -17.84375 C 9.453125 -14.363281 10.425781 -11.566406 12.375 -9.453125 C 14.320312 -7.335938 16.867188 -6.28125 20.015625 -6.28125 C 21.429688 -6.28125 22.867188 -6.523438 24.328125 -7.015625 C 25.785156 -7.503906 27.078125 -8.316406 28.203125 -9.453125 C 29.234375 -10.484375 30.253906 -11.019531 31.265625 -11.0625 C 32.273438 -11.113281 33.109375 -10.832031 33.765625 -10.21875 C 34.421875 -9.613281 34.785156 -8.828125 34.859375 -7.859375 C 34.929688 -6.898438 34.519531 -5.925781 33.625 -4.9375 C 31.789062 -2.914062 29.6875 -1.46875 27.3125 -0.59375 C 24.945312 0.269531 22.492188 0.703125 19.953125 0.703125 C 16.234375 0.703125 12.976562 -0.0703125 10.1875 -1.625 C 7.394531 -3.175781 5.222656 -5.335938 3.671875 -8.109375 C 2.117188 -10.878906 1.34375 -14.097656 1.34375 -17.765625 C 1.34375 -21.566406 2.101562 -24.878906 3.625 -27.703125 C 5.15625 -30.523438 7.304688 -32.710938 10.078125 -34.265625 C 12.847656 -35.816406 16.066406 -36.59375 19.734375 -36.59375 C 22.328125 -36.59375 24.738281 -36.191406 26.96875 -35.390625 C 29.195312 -34.585938 31.253906 -33.082031 33.140625 -30.875 C 33.984375 -29.894531 34.34375 -28.929688 34.21875 -27.984375 C 34.101562 -27.046875 33.691406 -26.269531 32.984375 -25.65625 C 32.285156 -25.050781 31.453125 -24.757812 30.484375 -24.78125 C 29.523438 -24.800781 28.644531 -25.28125 27.84375 -26.21875 Z M 27.84375 -26.21875 "/></g></g></g><g fill="#000000" fill-opacity="1"><g transform="translate(169.612717, 215.979467)"><g><path d="M 36.515625 -44.90625 C 37.878906 -44.90625 38.910156 -44.53125 39.609375 -43.78125 C 40.316406 -43.03125 40.671875 -42.1875 40.671875 -41.25 C 40.671875 -40.351562 40.316406 -39.523438 39.609375 -38.765625 C 38.910156 -38.015625 37.878906 -37.640625 36.515625 -37.640625 L 23.40625 -37.640625 L 23.46875 -3.734375 C 23.46875 -2.460938 23.007812 -1.519531 22.09375 -0.90625 C 21.1875 -0.300781 20.257812 0 19.3125 0 C 18.332031 0 17.40625 -0.300781 16.53125 -0.90625 C 15.664062 -1.519531 15.234375 -2.460938 15.234375 -3.734375 L 15.234375 -37.640625 L 2.1875 -37.640625 C 0.820312 -37.640625 -0.175781 -38.015625 -0.8125 -38.765625 C -1.445312 -39.523438 -1.765625 -40.351562 -1.765625 -41.25 C -1.765625 -42.1875 -1.445312 -43.03125 -0.8125 -43.78125 C -0.175781 -44.53125 0.820312 -44.90625 2.1875 -44.90625 Z M 36.515625 -44.90625 "/></g></g></g><g fill="#000000" fill-opacity="1"><g transform="translate(208.45497, 215.979467)"><g><path d="M 19.03125 -35.890625 C 20.300781 -35.890625 21.3125 -35.617188 22.0625 -35.078125 C 22.8125 -34.535156 23.1875 -33.65625 23.1875 -32.4375 C 23.1875 -31.300781 22.8125 -30.40625 22.0625 -29.75 C 21.3125 -29.09375 20.300781 -28.765625 19.03125 -28.765625 C 16.070312 -28.765625 13.992188 -27.707031 12.796875 -25.59375 C 11.597656 -23.476562 11 -20.609375 11 -16.984375 L 11 -3.59375 C 11 -2.5625 10.617188 -1.703125 9.859375 -1.015625 C 9.109375 -0.335938 8.195312 0 7.125 0 C 5.894531 0 4.90625 -0.335938 4.15625 -1.015625 C 3.40625 -1.703125 3.03125 -2.5625 3.03125 -3.59375 L 3.03125 -32.28125 C 3.03125 -33.414062 3.460938 -34.300781 4.328125 -34.9375 C 5.203125 -35.570312 6.132812 -35.890625 7.125 -35.890625 C 8.101562 -35.890625 8.992188 -35.582031 9.796875 -34.96875 C 10.597656 -34.351562 11 -33.457031 11 -32.28125 L 11 -31.859375 C 12.03125 -33.222656 13.226562 -34.234375 14.59375 -34.890625 C 15.957031 -35.554688 17.4375 -35.890625 19.03125 -35.890625 Z M 19.03125 -35.890625 "/></g></g></g><g fill="#000000" fill-opacity="1"><g transform="translate(229.532416, 215.979467)"><g><path d="M 20.15625 -6.28125 C 21.519531 -6.28125 22.859375 -6.46875 24.171875 -6.84375 C 25.492188 -7.21875 26.71875 -7.847656 27.84375 -8.734375 C 28.925781 -9.722656 29.984375 -10.179688 31.015625 -10.109375 C 32.054688 -10.046875 32.914062 -9.671875 33.59375 -8.984375 C 34.269531 -8.304688 34.609375 -7.460938 34.609375 -6.453125 C 34.609375 -5.441406 34.117188 -4.46875 33.140625 -3.53125 C 31.492188 -1.925781 29.539062 -0.804688 27.28125 -0.171875 C 25.03125 0.460938 22.726562 0.753906 20.375 0.703125 C 16.707031 0.703125 13.472656 -0.046875 10.671875 -1.546875 C 7.878906 -3.054688 5.695312 -5.148438 4.125 -7.828125 C 2.550781 -10.503906 1.765625 -13.601562 1.765625 -17.125 C 1.765625 -20.976562 2.515625 -24.363281 4.015625 -27.28125 C 5.523438 -30.195312 7.648438 -32.476562 10.390625 -34.125 C 13.140625 -35.769531 16.394531 -36.59375 20.15625 -36.59375 C 23.914062 -36.59375 27.113281 -35.828125 29.75 -34.296875 C 32.382812 -32.765625 34.394531 -30.625 35.78125 -27.875 C 37.164062 -25.132812 37.859375 -21.929688 37.859375 -18.265625 C 37.859375 -17.085938 37.625 -16.085938 37.15625 -15.265625 C 36.6875 -14.441406 35.441406 -14.03125 33.421875 -14.03125 L 9.9375 -14.03125 C 10.59375 -11.726562 11.835938 -9.859375 13.671875 -8.421875 C 15.503906 -6.992188 17.664062 -6.28125 20.15625 -6.28125 Z M 20.234375 -29.609375 C 17.503906 -29.609375 15.222656 -28.75 13.390625 -27.03125 C 11.554688 -25.320312 10.382812 -23.078125 9.875 -20.296875 L 30.390625 -20.296875 C 30.148438 -23.078125 29.226562 -25.320312 27.625 -27.03125 C 26.03125 -28.75 23.566406 -29.609375 20.234375 -29.609375 Z M 20.234375 -29.609375 "/></g></g></g><g fill="#000000" fill-opacity="1"><g transform="translate(270.489529, 215.979467)"><g><path d="M 31.578125 -6.0625 C 32.378906 -5.070312 32.695312 -4.117188 32.53125 -3.203125 C 32.363281 -2.285156 31.914062 -1.519531 31.1875 -0.90625 C 30.46875 -0.300781 29.632812 0 28.6875 0 C 27.425781 0 26.347656 -0.515625 25.453125 -1.546875 L 13.53125 -14.8125 L 11.484375 -12.96875 L 11.484375 -3.59375 C 11.484375 -2.414062 11.050781 -1.519531 10.1875 -0.90625 C 9.320312 -0.300781 8.394531 0 7.40625 0 C 6.363281 0 5.441406 -0.300781 4.640625 -0.90625 C 3.847656 -1.519531 3.453125 -2.414062 3.453125 -3.59375 L 3.453125 -42.015625 C 3.453125 -43.234375 3.847656 -44.132812 4.640625 -44.71875 C 5.441406 -45.3125 6.382812 -45.609375 7.46875 -45.609375 C 8.550781 -45.609375 9.488281 -45.3125 10.28125 -44.71875 C 11.082031 -44.132812 11.484375 -43.234375 11.484375 -42.015625 L 11.484375 -22.5625 L 24.53125 -34.75 C 25.425781 -35.507812 26.414062 -35.890625 27.5 -35.890625 C 28.625 -35.890625 29.582031 -35.523438 30.375 -34.796875 C 31.175781 -34.066406 31.578125 -33.226562 31.578125 -32.28125 C 31.578125 -31.394531 31.085938 -30.484375 30.109375 -29.546875 L 19.03125 -19.734375 Z M 31.578125 -6.0625 "/></g></g></g></svg>